# xmcd
#
# Track frame offsets: 
#        150
#        21014
#        39868
#        60473
#        84323
#        103801
#        124729
#        148752
#        169344
#        188645
#        211012
#        228224
#        248154
#        269271
#        288752
#        305670
#        325531
#
# Disc length: 4649 seconds
#
# Revision: 0
# Processed by: cddbd v1.5.2PL0 Copyright (c) Steve Scherf et al.
# Submitted via: ExactAudioCopy v1.0b1
#
DISCID=de122711
DTITLE=Ufo  - Misdemeanor (2009 Expanded Remaster) (1985) 
DYEAR=1900
DGENRE=
TTITLE0=This Time
TTITLE1=One Heart
TTITLE2=Night Run
TTITLE3=The Only Ones
TTITLE4=Meanstreets
TTITLE5=Name of Love
TTITLE6=Blue
TTITLE7=Dream the Dream
TTITLE8=Heavens Gate
TTITLE9=Wreckless
TTITLE10=The Chase (B-Side of 'This Time' single)
TTITLE11=Night Run (US Remix)
TTITLE12=This Time (US Remix)
TTITLE13=Heavens Gate (US Remix)
TTITLE14=Name of Love (US Remix)
TTITLE15=One Heart (US Remix)
TTITLE16=Blue (US Remix)
EXTD=
EXTT0=
EXTT1=
EXTT2=
EXTT3=
EXTT4=
EXTT5=
EXTT6=
EXTT7=
EXTT8=
EXTT9=
EXTT10=
EXTT11=
EXTT12=
EXTT13=
EXTT14=
EXTT15=
EXTT16=
PLAYORDER=
